<svg xmlns="http://www.w3.org/2000/svg" xmlns:xlink="http://www.w3.org/1999/xlink" xmlns:lucid="lucid" width="121" height="106.33"><g transform="translate(-539.5 -396.83333333333337)" lucid:page-tab-id="xwNTIuizfXaW"><path d="M560 427.33a10 10 0 0 1 10-10h60a10 10 0 0 1 10 10v45.34a10 10 0 0 1-10 10h-60a10 10 0 0 1-10-10z" stroke="#333" fill="#50abdf"/><use xlink:href="#a" transform="matrix(1,0,0,1,565,422.33333333333337) translate(6.6666666666666785 41.055555555555536)"/><defs><path fill="#fc9432" d="M136-208V0H84v-208H4v-40h212v40h-80" id="b"/><path d="M24 0v-248h195v40H76v63h132v40H76v65h150V0H24" id="c"/><g id="a"><use transform="matrix(0.12345679012345673,0,0,0.12345679012345673,0,0)" xlink:href="#b"/><use transform="matrix(0.12345679012345673,0,0,0.12345679012345673,27.037037037037024,0)" xlink:href="#c"/></g></defs></g></svg>